<svg width="72" height="33" viewBox="0 0 72 33" fill="none" xmlns="http://www.w3.org/2000/svg">
<path d="M47.705 15.989H54.564V17.623H47.705V15.989ZM47.895 23H45.995V9.7H55.381V11.353H47.895V23ZM57.7895 23V12.93H59.6135V23H57.7895ZM58.7015 10.992C58.3469 10.992 58.0492 10.878 57.8085 10.65C57.5805 10.422 57.4665 10.1433 57.4665 9.814C57.4665 9.472 57.5805 9.187 57.8085 8.959C58.0492 8.731 58.3469 8.617 58.7015 8.617C59.0562 8.617 59.3475 8.731 59.5755 8.959C59.8162 9.17433 59.9365 9.44667 59.9365 9.776C59.9365 10.118 59.8225 10.4093 59.5945 10.65C59.3665 10.878 59.0689 10.992 58.7015 10.992ZM61.6332 23L65.9652 17.376L65.9462 18.307L61.8232 12.93H63.8562L67.0102 17.072H66.2312L69.3852 12.93H71.3802L67.2002 18.345L67.2192 17.376L71.5892 23H69.5182L66.1932 18.592L66.9342 18.706L63.6662 23H61.6332Z" fill="white"/>
<path d="M27.3021 16.5C27.3021 22.9526 22.2094 28 16.1511 28C10.0927 28 5 22.9526 5 16.5C5 10.0474 10.0927 5 16.1511 5C22.2094 5 27.3021 10.0474 27.3021 16.5Z" stroke="url(#paint0_linear_901_5)" stroke-width="10"/>
<path opacity="0.5" d="M31.8021 16.5C31.8021 25.3467 24.7849 32.5 16.1511 32.5C7.51724 32.5 0.5 25.3467 0.5 16.5C0.5 7.65332 7.51724 0.5 16.1511 0.5C24.7849 0.5 31.8021 7.65332 31.8021 16.5Z" stroke="url(#paint1_linear_901_5)"/>
<defs>
<linearGradient id="paint0_linear_901_5" x1="4.73645" y1="4.35126" x2="27.1533" y2="28.2554" gradientUnits="userSpaceOnUse">
<stop stop-color="#26D0FF"/>
<stop offset="1" stop-color="#9149ED"/>
</linearGradient>
<linearGradient id="paint1_linear_901_5" x1="26.8681" y1="28.929" x2="4.54779" y2="2.44405" gradientUnits="userSpaceOnUse">
<stop stop-color="white"/>
<stop offset="1" stop-color="white" stop-opacity="0"/>
</linearGradient>
</defs>
</svg>
