<?xml version="1.0" encoding="UTF-8"?>
<svg xmlns="http://www.w3.org/2000/svg" xmlns:xlink="http://www.w3.org/1999/xlink" viewBox="0 0 50 50" width="50px" height="50px">
<g id="surface48623">
<path style=" stroke:none;fill-rule:nonzero;fill:rgb(18.039216%,80.000001%,44.313726%);fill-opacity:1;" d="M 35.417969 43.75 L 41.667969 43.75 C 45.105469 43.75 47.917969 40.9375 47.917969 37.5 L 47.917969 20.667969 L 35.417969 30.417969 Z M 40.625 6.25 C 38.980469 6.25 37.417969 6.792969 36.125 7.792969 L 35.417969 8.355469 L 35.417969 25.144531 L 47.917969 15.375 L 47.917969 13.542969 C 47.917969 9.519531 44.644531 6.25 40.625 6.25 Z M 18.75 11.605469 L 18.75 28.394531 L 25 33.269531 L 31.25 28.394531 L 31.25 11.605469 L 25 16.480469 Z M 2.082031 37.5 C 2.082031 40.9375 4.894531 43.75 8.332031 43.75 L 14.582031 43.75 L 14.582031 30.417969 L 2.082031 20.667969 Z M 9.375 6.25 C 5.355469 6.25 2.082031 9.519531 2.082031 13.542969 L 2.082031 15.375 L 14.582031 25.144531 L 14.582031 8.355469 L 13.875 7.792969 C 12.582031 6.792969 11.019531 6.25 9.375 6.25 Z M 9.375 6.25 "/>
</g>
</svg>
